HIERARCHY
ROOT joint_Root
{
	OFFSET 0.0 0.0 0.0
	CHANNELS 6 Xposition Yposition Zposition Zrotation Xrotation Yrotation 
	JOINT Hips
	{
		OFFSET -0.726466 93.3139 -2.00062
		CHANNELS 6 Xposition Yposition Zposition Zrotation Xrotation Yrotation 
		JOINT Spine
		{
			OFFSET 15.7357 0.0 0.0
			CHANNELS 6 Xposition Yposition Zposition Zrotation Xrotation Yrotation 
			JOINT Chest
			{
				OFFSET 8.98455 -0.406207 0.0
				CHANNELS 6 Xposition Yposition Zposition Zrotation Xrotation Yrotation 
				JOINT Neck
				{
					OFFSET 16.3773 0.0 0.0
					CHANNELS 6 Xposition Yposition Zposition Zrotation Xrotation Yrotation 
					JOINT Head
					{
						OFFSET 6.45672 0.0 0.0
						CHANNELS 6 Xposition Yposition Zposition Zrotation Xrotation Yrotation 
						End Site
						{
							OFFSET 0.0 0.0 0.0
						}
					}
				}
				JOINT Shoulder_L
				{
					OFFSET 12.9942 -0.242716 4.98039
					CHANNELS 6 Xposition Yposition Zposition Zrotation Xrotation Yrotation 
					JOINT UpperArm_L
					{
						OFFSET 5.34809 0.0 0.0
						CHANNELS 6 Xposition Yposition Zposition Zrotation Xrotation Yrotation 
						JOINT LowerArm_L
						{
							OFFSET 24.3286 1.87007e-05 0.0
							CHANNELS 6 Xposition Yposition Zposition Zrotation Xrotation Yrotation 
							JOINT Hand_L
							{
								OFFSET 22.2916 0.0 0.0
								CHANNELS 6 Xposition Yposition Zposition Zrotation Xrotation Yrotation 
								End Site
								{
									OFFSET 0.0 0.0 0.0
								}
							}
						}
					}
				}
				JOINT Shoulder_R
				{
					OFFSET 12.9945 -0.242716 -4.98039
					CHANNELS 6 Xposition Yposition Zposition Zrotation Xrotation Yrotation 
					JOINT UpperArm_R
					{
						OFFSET -5.34813 0.0 0.0
						CHANNELS 6 Xposition Yposition Zposition Zrotation Xrotation Yrotation 
						JOINT LowerArm_R
						{
							OFFSET -24.3289 0.000322201 0.0
							CHANNELS 6 Xposition Yposition Zposition Zrotation Xrotation Yrotation 
							JOINT Hand_R
							{
								OFFSET -22.2915 -0.000108084 0.0
								CHANNELS 6 Xposition Yposition Zposition Zrotation Xrotation Yrotation 
								End Site
								{
									OFFSET 0.0 0.0 0.0
								}
							}
						}
					}
				}
			}
		}
		JOINT UpperLeg_L
		{
			OFFSET -2.19248 -6.46944 0.0
			CHANNELS 6 Xposition Yposition Zposition Zrotation Xrotation Yrotation 
			JOINT LowerLeg_L
			{
				OFFSET 39.0811 0.0 -1.23785e-05
				CHANNELS 6 Xposition Yposition Zposition Zrotation Xrotation Yrotation 
				JOINT Foot_L
				{
					OFFSET 40.9854 0.0 -1.26872e-05
					CHANNELS 6 Xposition Yposition Zposition Zrotation Xrotation Yrotation 
					JOINT Toes_L
					{
						OFFSET 11.7543 0.0 0.0
						CHANNELS 6 Xposition Yposition Zposition Zrotation Xrotation Yrotation 
						End Site
						{
							OFFSET 0.0 0.0 0.0
						}
					}
				}
			}
		}
		JOINT UpperLeg_R
		{
			OFFSET -2.19251 6.46944 0.0
			CHANNELS 6 Xposition Yposition Zposition Zrotation Xrotation Yrotation 
			JOINT LowerLeg_R
			{
				OFFSET -39.0811 -0.00228153 -0.0401928
				CHANNELS 6 Xposition Yposition Zposition Zrotation Xrotation Yrotation 
				JOINT Foot_R
				{
					OFFSET -40.9854 0.0 0.0
					CHANNELS 6 Xposition Yposition Zposition Zrotation Xrotation Yrotation 
					JOINT Toes_R
					{
						OFFSET -11.7543 0.0 0.0
						CHANNELS 6 Xposition Yposition Zposition Zrotation Xrotation Yrotation 
						End Site
						{
							OFFSET 0.0 0.0 0.0
						}
					}
				}
			}
		}
	}
}
MOTION
Frames:	9
Frame Time:	0.0333333
0.000000 0.000000 0.000000 0.000000 0.000000 -0.000000 -1.983240 93.223900 -1.489740 88.872800 -2.127320 -0.267872 15.735700 0.000005 -0.000001 104.218000 87.150700 -105.332000 8.984550 -0.406207 -0.000000 -2.226740 1.496380 -2.198400 16.377300 -0.000001 -0.000001 1.858470 -3.634210 6.368260 6.456720 -0.000001 -0.000000 5.334940 -1.370700 -6.211220 12.994200 -0.242716 4.980390 -89.760200 -0.748672 -72.235200 5.348090 -0.000007 -0.000001 -71.217600 32.386000 -10.392400 24.328600 0.000019 0.000005 4.543630 11.649400 -21.482400 22.291600 -0.000001 0.000005 4.858780 5.478780 -5.701750 12.994500 -0.242716 -4.980390 92.468100 -5.664920 -66.410600 -5.348130 -0.000001 -0.000004 -83.146200 -53.841300 -125.198000 -24.328900 0.000322 -0.000009 0.274975 2.548670 -6.160290 -22.291500 -0.000108 -0.000004 31.929400 4.763390 11.969600 -2.192480 -6.469440 -0.000000 -176.138000 -9.441200 -3.826430 39.081100 -0.000007 -0.000012 -0.052290 0.198527 14.755800 40.985400 -0.000006 -0.000013 -1.101550 4.182580 -61.198300 11.754300 -0.000000 0.000003 -0.000006 -0.000085 -16.580900 -2.192510 6.469440 -0.000001 -179.060000 12.438400 178.724000 -39.081100 -0.002282 -0.040193 -0.008373 0.056000 11.809400 -40.985400 0.000008 0.000006 4.280220 6.747210 -61.635600 -11.754300 -0.000006 -0.000006 -0.006506 -0.075363 -19.640700
0.000000 0.000000 0.000000 0.000000 0.000000 -0.000000 -1.960610 93.220300 -1.442550 88.878800 -2.158250 -0.253628 15.735700 0.000005 -0.000001 103.873000 87.144600 -104.977000 8.984550 -0.406207 -0.000000 -2.207110 1.464950 -2.180420 16.377300 -0.000001 -0.000001 1.829300 -3.606500 6.311910 6.456720 -0.000001 -0.000000 5.130150 -1.300320 -6.264210 12.994200 -0.242716 4.980390 -89.751400 -0.774384 -72.200600 5.348090 -0.000007 -0.000001 -70.860900 31.874300 -10.467900 24.328600 0.000019 0.000005 4.515760 11.892800 -20.968800 22.291600 -0.000001 0.000005 5.088440 5.472590 -5.467270 12.994500 -0.242716 -4.980390 92.409400 -5.529860 -66.411800 -5.348130 -0.000001 -0.000004 -85.557900 -52.933800 -127.001000 -24.328900 0.000322 -0.000009 -0.045835 -0.495653 -5.165040 -22.291500 -0.000108 -0.000004 34.430300 4.671340 13.668000 -2.192480 -6.469440 -0.000000 -176.148000 -9.507570 -3.779070 39.081100 -0.000007 -0.000012 -0.052691 0.199966 14.761700 40.985400 -0.000006 -0.000013 -1.086650 4.209730 -61.235600 11.754300 -0.000000 0.000003 -0.000004 -0.000060 -16.579900 -2.192510 6.469440 -0.000001 -179.093000 12.383300 178.771000 -39.081100 -0.002282 -0.040193 -0.008601 0.057106 11.806100 -40.985400 0.000008 0.000006 4.207930 6.734500 -61.651000 -11.754300 -0.000006 -0.000006 -0.006211 -0.072737 -19.533500
0.000000 0.000000 0.000000 0.000000 0.000000 -0.000000 -1.946200 93.219200 -1.403440 88.875900 -2.261330 -0.253475 15.735700 0.000005 -0.000001 103.720000 87.153500 -104.782000 8.984550 -0.406207 -0.000000 -2.221510 1.442350 -2.095630 16.377300 -0.000001 -0.000001 1.773860 -3.577040 6.272960 6.456720 -0.000001 -0.000000 5.054150 -1.202440 -6.210670 12.994200 -0.242716 4.980390 -89.736900 -0.818189 -72.174800 5.348090 -0.000007 -0.000001 -70.656700 31.198400 -10.470700 24.328600 0.000019 0.000005 4.553100 12.375400 -20.383500 22.291600 -0.000001 0.000005 5.150500 5.468930 -5.330170 12.994500 -0.242716 -4.980390 92.441900 -5.583960 -66.334000 -5.348130 -0.000001 -0.000004 -85.209500 -52.715200 -127.108000 -24.328900 0.000322 -0.000009 0.027041 0.273047 -5.825340 -22.291500 -0.000108 -0.000004 34.369800 4.683340 13.453400 -2.192480 -6.469440 -0.000000 -176.151000 -9.528670 -3.717750 39.081100 -0.000007 -0.000012 -0.053032 0.201615 14.737100 40.985400 -0.000006 -0.000013 -1.093790 4.127440 -61.267700 11.754300 -0.000000 0.000003 -0.000005 -0.000072 -16.580300 -2.192510 6.469440 -0.000001 -179.105000 12.371300 178.795000 -39.081100 -0.002282 -0.040193 -0.008271 0.055529 11.806100 -40.985400 0.000008 0.000006 4.263220 6.786140 -61.682600 -11.754300 -0.000006 -0.000006 -0.006526 -0.075542 -19.648000
0.000000 0.000000 0.000000 0.000000 0.000000 -0.000000 -1.949670 93.221800 -1.375790 88.877600 -2.392300 -0.299151 15.735700 0.000005 -0.000001 103.987000 87.174500 -105.001000 8.984550 -0.406207 -0.000000 -2.269110 1.454290 -1.999140 16.377300 -0.000001 -0.000001 1.735350 -3.622610 6.349990 6.456720 -0.000001 -0.000000 5.006090 -1.300180 -6.080780 12.994200 -0.242716 4.980390 -89.737100 -0.818509 -72.193300 5.348090 -0.000007 -0.000001 -70.374400 30.729300 -10.414700 24.328600 0.000019 0.000005 4.551490 12.632100 -20.002000 22.291600 -0.000001 0.000005 5.189030 5.464860 -5.177890 12.994500 -0.242716 -4.980390 92.487900 -5.679250 -66.295800 -5.348130 -0.000001 -0.000004 -82.555800 -53.332100 -125.991000 -24.328900 0.000322 -0.000009 0.090554 0.642993 -8.112910 -22.291500 -0.000108 -0.000004 33.099200 4.745460 12.328800 -2.192480 -6.469440 -0.000000 -176.163000 -9.586170 -3.699560 39.081100 -0.000007 -0.000012 -0.053114 0.202761 14.679000 40.985400 -0.000006 -0.000013 -1.105700 4.044440 -61.267200 11.754300 -0.000000 0.000003 -0.000005 -0.000075 -16.580500 -2.192510 6.469440 -0.000001 -179.098000 12.233500 178.775000 -39.081100 -0.002282 -0.040193 -0.007932 0.054084 11.768500 -40.985400 0.000008 0.000006 4.273440 6.793680 -61.671600 -11.754300 -0.000006 -0.000006 -0.006477 -0.075109 -19.630300
0.000000 0.000000 0.000000 0.000000 0.000000 -0.000000 -1.965260 93.221900 -1.361510 88.880300 -2.518170 -0.336936 15.735700 0.000005 -0.000001 104.325000 87.191000 -105.282000 8.984550 -0.406207 -0.000000 -2.310060 1.473680 -1.883600 16.377300 -0.000001 -0.000001 1.747440 -3.753630 6.487790 6.456720 -0.000001 -0.000000 4.908820 -1.472490 -5.976340 12.994200 -0.242716 4.980390 -89.760300 -0.745308 -72.170200 5.348090 -0.000007 -0.000001 -70.076000 30.350100 -10.380100 24.328600 0.000019 0.000005 4.529300 12.770400 -19.716100 22.291600 -0.000001 0.000005 5.274540 5.460840 -5.031600 12.994500 -0.242716 -4.980390 92.571600 -5.856480 -66.242500 -5.348130 -0.000001 -0.000004 -79.748600 -53.775500 -125.398000 -24.328900 0.000322 -0.000009 0.041798 0.215687 -11.274800 -22.291500 -0.000108 -0.000004 31.910400 4.838930 10.569700 -2.192480 -6.469440 -0.000000 -176.157000 -9.638620 -3.682280 39.081100 -0.000007 -0.000012 -0.052813 0.202211 14.637200 40.985400 -0.000006 -0.000013 -1.130670 3.991840 -61.272100 11.754300 -0.000000 0.000003 -0.000005 -0.000069 -16.580200 -2.192510 6.469440 -0.000001 -179.086000 12.132300 178.747000 -39.081100 -0.002282 -0.040193 -0.008202 0.055448 11.754700 -40.985400 0.000008 0.000006 4.257130 6.830180 -61.666400 -11.754300 -0.000006 -0.000006 -0.006152 -0.072206 -19.511900
0.000000 0.000000 0.000000 0.000000 0.000000 -0.000000 -2.016120 93.217300 -1.338110 88.885100 -2.571550 -0.345385 15.735700 0.000005 -0.000001 104.669000 87.200000 -105.585000 8.984550 -0.406207 -0.000000 -2.336340 1.498420 -1.801920 16.377300 -0.000001 -0.000001 1.729340 -3.961730 6.649500 6.456720 -0.000001 -0.000000 4.909200 -1.698630 -5.747400 12.994200 -0.242716 4.980390 -89.785400 -0.666983 -72.164100 5.348090 -0.000007 -0.000001 -69.876600 29.814600 -10.346100 24.328600 0.000019 0.000005 4.583210 13.070900 -19.517100 22.291600 -0.000001 0.000005 5.459610 5.464780 -5.176430 12.994500 -0.242716 -4.980390 92.670400 -6.057520 -66.155600 -5.348130 -0.000001 -0.000004 -77.052700 -54.107100 -125.213000 -24.328900 0.000322 -0.000009 0.098712 0.366195 -15.201900 -22.291500 -0.000108 -0.000004 30.476900 4.934320 8.677190 -2.192480 -6.469440 -0.000000 -176.130000 -9.702990 -3.667450 39.081100 -0.000007 -0.000012 -0.052654 0.201531 14.642200 40.985400 -0.000006 -0.000013 -1.156790 4.018720 -61.291700 11.754300 -0.000000 0.000003 -0.000004 -0.000060 -16.579900 -2.192510 6.469440 -0.000001 -179.061000 12.137800 178.728000 -39.081100 -0.002282 -0.040193 -0.008194 0.055176 11.803100 -40.985400 0.000008 0.000006 4.318260 6.864650 -61.716100 -11.754300 -0.000006 -0.000006 -0.006532 -0.075593 -19.650000
0.000000 0.000000 0.000000 0.000000 0.000000 -0.000000 -2.091400 93.212500 -1.315930 88.840400 -2.565870 -0.320477 15.735700 0.000005 -0.000001 105.388000 87.199300 -106.264000 8.984550 -0.406207 -0.000000 -2.353320 1.563220 -1.719680 16.377300 -0.000001 -0.000001 1.831770 -4.240940 6.786770 6.456720 -0.000001 -0.000000 4.783000 -2.011040 -5.386490 12.994200 -0.242716 4.980390 -89.820500 -0.558445 -72.179000 5.348090 -0.000007 -0.000001 -69.684800 29.555800 -10.310800 24.328600 0.000019 0.000005 4.586630 13.086200 -19.510000 22.291600 -0.000001 0.000005 5.562040 5.462950 -5.109260 12.994500 -0.242716 -4.980390 92.743600 -6.193090 -66.048700 -5.348130 -0.000001 -0.000004 -74.121500 -54.533600 -125.081000 -24.328900 0.000322 -0.000009 0.272623 0.760650 -19.736700 -22.291500 -0.000108 -0.000004 29.316700 5.032940 6.606880 -2.192480 -6.469440 -0.000000 -176.024000 -9.705940 -3.654870 39.081100 -0.000007 -0.000012 -0.053534 0.204000 14.703900 40.985400 -0.000006 -0.000013 -1.212680 4.007120 -61.328500 11.754300 -0.000000 0.000003 -0.000003 -0.000051 -16.579500 -2.192510 6.469440 -0.000001 -178.953000 12.072800 178.782000 -39.081100 -0.002282 -0.040193 -0.006943 0.049223 11.794600 -40.985400 0.000008 0.000006 4.507950 6.787130 -61.762400 -11.754300 -0.000006 -0.000006 -0.006528 -0.075555 -19.648500
0.000000 0.000000 0.000000 0.000000 0.000000 -0.000000 -2.174530 93.206100 -1.313680 88.831300 -2.580640 -0.357000 15.735700 0.000005 -0.000001 106.288000 87.208900 -107.126000 8.984550 -0.406207 -0.000000 -2.395760 1.639420 -1.643180 16.377300 -0.000001 -0.000001 1.827370 -4.516930 6.922210 6.456720 -0.000001 -0.000000 4.789890 -2.286100 -5.231910 12.994200 -0.242716 4.980390 -89.854800 -0.450570 -72.135900 5.348090 -0.000007 -0.000001 -69.609400 29.455000 -10.327600 24.328600 0.000019 0.000005 4.577850 13.013900 -19.573500 22.291600 -0.000001 0.000005 5.421730 5.460710 -5.026620 12.994500 -0.242716 -4.980390 92.808800 -6.306960 -65.934300 -5.348130 -0.000001 -0.000004 -71.341000 -54.826000 -125.126000 -24.328900 0.000322 -0.000009 0.909387 1.943760 -25.083800 -22.291500 -0.000108 -0.000004 28.968000 5.120500 4.637570 -2.192480 -6.469440 -0.000000 -175.960000 -9.727160 -3.705640 39.081100 -0.000007 -0.000012 -0.054757 0.208052 14.745100 40.985400 -0.000006 -0.000013 -1.270790 4.014080 -61.344000 11.754300 -0.000000 0.000003 -0.000005 -0.000070 -16.580200 -2.192510 6.469440 -0.000001 -178.878000 12.041200 178.729000 -39.081100 -0.002282 -0.040193 -0.006939 0.049044 11.832300 -40.985400 0.000008 0.000006 4.529380 6.755410 -61.788500 -11.754300 -0.000006 -0.000006 -0.006339 -0.073881 -19.580200
0.000000 0.000000 0.000000 0.000000 0.000000 -0.000000 -2.245600 93.201100 -1.293580 88.839200 -2.553910 -0.280039 15.735700 0.000005 -0.000001 106.775000 87.187200 -107.576000 8.984550 -0.406207 -0.000000 -2.367850 1.693920 -1.566700 16.377300 -0.000001 -0.000001 1.855580 -4.683540 6.996530 6.456720 -0.000001 -0.000000 4.781880 -2.498060 -5.228170 12.994200 -0.242716 4.980390 -89.886900 -0.351669 -72.166700 5.348090 -0.000007 -0.000001 -69.683500 29.548000 -10.214500 24.328600 0.000019 0.000005 4.583930 12.907500 -19.744000 22.291600 -0.000001 0.000005 5.571110 5.466620 -5.244070 12.994500 -0.242716 -4.980390 92.839100 -6.356700 -65.871700 -5.348130 -0.000001 -0.000004 -68.728900 -55.020200 -125.161000 -24.328900 0.000322 -0.000009 1.690690 2.766630 -31.443100 -22.291500 -0.000108 -0.000004 28.845900 5.225420 2.067500 -2.192480 -6.469440 -0.000000 -175.914000 -9.651470 -3.626300 39.081100 -0.000007 -0.000012 -0.053785 0.204221 14.754700 40.985400 -0.000006 -0.000013 -1.325240 3.951610 -61.350400 11.754300 -0.000000 0.000003 -0.000003 -0.000049 -16.579400 -2.192510 6.469440 -0.000001 -178.857000 12.117300 178.811000 -39.081100 -0.002282 -0.040193 -0.006553 0.047017 11.876800 -40.985400 0.000008 0.000006 4.650010 6.800590 -61.859300 -11.754300 -0.000006 -0.000006 -0.006238 -0.072985 -19.543700
